<svg width="148" height="171" viewBox="0 0 148 171" fill="none" xmlns="http://www.w3.org/2000/svg">
<path d="M120.854 16.7533C133.163 24.6967 144.736 32.9417 147.366 43.9015C149.997 54.8613 143.789 68.4353 140.633 80.4006C137.582 92.2654 137.477 102.521 135.267 114.185C133.163 125.949 128.85 139.222 119.592 149.779C110.333 160.337 96.2354 168.28 81.0856 169.889C65.9357 171.498 49.8389 166.772 40.6859 156.114C31.5328 145.556 29.3234 128.966 22.3797 115.593C15.3308 102.32 3.54758 92.1648 0.706979 80.5012C-2.13363 68.8375 3.96841 55.6657 12.1746 44.3037C20.3808 33.0422 30.6911 23.5907 42.6848 15.4462C54.6785 7.40233 68.3554 0.464471 81.822 0.866665C95.2886 1.26886 108.545 8.81001 120.854 16.7533Z" fill="#229356"/>
</svg>
