<svg width="300" height="204" viewBox="0 0 300 204" fill="none" xmlns="http://www.w3.org/2000/svg">
<line x1="233.929" y1="162.227" x2="4.00002" y2="162.227" stroke="#070D29" stroke-width="3"/>
<g filter="url(#filter0_d)">
<line x1="233.929" y1="130.318" x2="4.00002" y2="130.318" stroke="#070D29"/>
</g>
<g filter="url(#filter1_d)">
<line x1="233.929" y1="99.4091" x2="4.00002" y2="99.4091" stroke="#070D29"/>
</g>
<g filter="url(#filter2_d)">
<line x1="233.929" y1="68.5" x2="4.00002" y2="68.5" stroke="#070D29"/>
</g>
<g filter="url(#filter3_d)">
<line x1="234.81" y1="37.5909" x2="4.00002" y2="37.5909" stroke="#070D29"/>
</g>
<g filter="url(#filter4_d)">
<line x1="234.81" y1="6.68182" x2="4.00002" y2="6.68182" stroke="#070D29"/>
</g>
<g filter="url(#filter5_d)">
<rect x="15" y="99" width="26" height="62" fill="#24A15E"/>
</g>
<g filter="url(#filter6_d)">
<rect x="63" y="20" width="26" height="141" fill="#24A15E"/>
</g>
<g filter="url(#filter7_d)">
<rect x="111" y="62" width="27" height="99" fill="#24A15E"/>
</g>
<g filter="url(#filter8_d)">
<rect x="160" y="80" width="26" height="81" fill="#24A15E"/>
</g>
<g filter="url(#filter9_d)">
<rect x="208" y="50" width="26" height="111" fill="#24A15E"/>
</g>
<path d="M74.3318 171V178H73.6018V174.77H69.2218V178H68.4818V171H69.2218V174.12H73.6018V171H74.3318ZM77.9766 171.64H75.5166V171H81.1766V171.64H78.7166V178H77.9766V171.64ZM89.6288 171V178H88.9188V172.4L86.1688 177.11H85.8188L83.0688 172.43V178H82.3588V171H82.9688L86.0088 176.19L89.0188 171H89.6288ZM91.9095 171H92.6495V177.36H96.5695V178H91.9095V171ZM84.8053 190.11L83.8353 189.11C83.242 189.743 82.462 190.06 81.4953 190.06C81.042 190.06 80.6353 189.987 80.2753 189.84C79.922 189.687 79.6453 189.477 79.4453 189.21C79.2453 188.937 79.1453 188.627 79.1453 188.28C79.1453 187.86 79.2786 187.483 79.5453 187.15C79.812 186.817 80.2653 186.467 80.9053 186.1C80.572 185.753 80.342 185.46 80.2153 185.22C80.0886 184.973 80.0253 184.713 80.0253 184.44C80.0253 183.993 80.1853 183.633 80.5053 183.36C80.8253 183.087 81.2553 182.95 81.7953 182.95C82.2953 182.95 82.692 183.073 82.9853 183.32C83.2786 183.567 83.4253 183.907 83.4253 184.34C83.4253 184.687 83.3086 185 83.0753 185.28C82.842 185.553 82.4386 185.857 81.8653 186.19L83.7853 188.17C83.9986 187.79 84.1553 187.34 84.2553 186.82L84.8353 187C84.7086 187.627 84.502 188.163 84.2153 188.61L85.2153 189.64L84.8053 190.11ZM81.7953 183.48C81.4486 183.48 81.1753 183.567 80.9753 183.74C80.782 183.913 80.6853 184.143 80.6853 184.43C80.6853 184.637 80.7386 184.833 80.8453 185.02C80.952 185.207 81.162 185.46 81.4753 185.78C81.982 185.487 82.332 185.237 82.5253 185.03C82.7186 184.823 82.8153 184.597 82.8153 184.35C82.8153 184.083 82.7253 183.873 82.5453 183.72C82.3653 183.56 82.1153 183.48 81.7953 183.48ZM81.5353 189.47C82.3086 189.47 82.9353 189.207 83.4153 188.68L81.3053 186.51C80.752 186.823 80.3686 187.107 80.1553 187.36C79.9486 187.613 79.8453 187.897 79.8453 188.21C79.8453 188.59 79.9986 188.897 80.3053 189.13C80.6186 189.357 81.0286 189.47 81.5353 189.47ZM76.4535 202.06C75.7601 202.06 75.1335 201.907 74.5735 201.6C74.0201 201.293 73.5835 200.87 73.2635 200.33C72.9501 199.783 72.7935 199.173 72.7935 198.5C72.7935 197.827 72.9501 197.22 73.2635 196.68C73.5835 196.133 74.0235 195.707 74.5835 195.4C75.1435 195.093 75.7701 194.94 76.4635 194.94C76.9835 194.94 77.4635 195.027 77.9035 195.2C78.3435 195.373 78.7168 195.627 79.0235 195.96L78.5535 196.43C78.0068 195.877 77.3168 195.6 76.4835 195.6C75.9301 195.6 75.4268 195.727 74.9735 195.98C74.5201 196.233 74.1635 196.58 73.9035 197.02C73.6501 197.46 73.5235 197.953 73.5235 198.5C73.5235 199.047 73.6501 199.54 73.9035 199.98C74.1635 200.42 74.5201 200.767 74.9735 201.02C75.4268 201.273 75.9301 201.4 76.4835 201.4C77.3235 201.4 78.0135 201.12 78.5535 200.56L79.0235 201.03C78.7168 201.363 78.3401 201.62 77.8935 201.8C77.4535 201.973 76.9735 202.06 76.4535 202.06ZM82.4919 202.06C81.9719 202.06 81.4719 201.977 80.9919 201.81C80.5186 201.643 80.1519 201.423 79.8919 201.15L80.1819 200.58C80.4352 200.833 80.7719 201.04 81.1919 201.2C81.6119 201.353 82.0452 201.43 82.4919 201.43C83.1186 201.43 83.5886 201.317 83.9019 201.09C84.2152 200.857 84.3719 200.557 84.3719 200.19C84.3719 199.91 84.2852 199.687 84.1119 199.52C83.9452 199.353 83.7386 199.227 83.4919 199.14C83.2452 199.047 82.9019 198.947 82.4619 198.84C81.9352 198.707 81.5152 198.58 81.2019 198.46C80.8886 198.333 80.6186 198.143 80.3919 197.89C80.1719 197.637 80.0619 197.293 80.0619 196.86C80.0619 196.507 80.1552 196.187 80.3419 195.9C80.5286 195.607 80.8152 195.373 81.2019 195.2C81.5886 195.027 82.0686 194.94 82.6419 194.94C83.0419 194.94 83.4319 194.997 83.8119 195.11C84.1986 195.217 84.5319 195.367 84.8119 195.56L84.5619 196.15C84.2686 195.957 83.9552 195.813 83.6219 195.72C83.2886 195.62 82.9619 195.57 82.6419 195.57C82.0286 195.57 81.5652 195.69 81.2519 195.93C80.9452 196.163 80.7919 196.467 80.7919 196.84C80.7919 197.12 80.8752 197.347 81.0419 197.52C81.2152 197.687 81.4286 197.817 81.6819 197.91C81.9419 197.997 82.2886 198.093 82.7219 198.2C83.2352 198.327 83.6486 198.453 83.9619 198.58C84.2819 198.7 84.5519 198.887 84.7719 199.14C84.9919 199.387 85.1019 199.723 85.1019 200.15C85.1019 200.503 85.0052 200.827 84.8119 201.12C84.6252 201.407 84.3352 201.637 83.9419 201.81C83.5486 201.977 83.0652 202.06 82.4919 202.06ZM88.6442 202.06C88.1242 202.06 87.6242 201.977 87.1442 201.81C86.6709 201.643 86.3042 201.423 86.0442 201.15L86.3342 200.58C86.5876 200.833 86.9242 201.04 87.3442 201.2C87.7642 201.353 88.1976 201.43 88.6442 201.43C89.2709 201.43 89.7409 201.317 90.0542 201.09C90.3676 200.857 90.5242 200.557 90.5242 200.19C90.5242 199.91 90.4376 199.687 90.2642 199.52C90.0976 199.353 89.8909 199.227 89.6442 199.14C89.3976 199.047 89.0542 198.947 88.6142 198.84C88.0876 198.707 87.6676 198.58 87.3542 198.46C87.0409 198.333 86.7709 198.143 86.5442 197.89C86.3242 197.637 86.2142 197.293 86.2142 196.86C86.2142 196.507 86.3076 196.187 86.4942 195.9C86.6809 195.607 86.9676 195.373 87.3542 195.2C87.7409 195.027 88.2209 194.94 88.7942 194.94C89.1942 194.94 89.5842 194.997 89.9642 195.11C90.3509 195.217 90.6842 195.367 90.9642 195.56L90.7142 196.15C90.4209 195.957 90.1076 195.813 89.7742 195.72C89.4409 195.62 89.1142 195.57 88.7942 195.57C88.1809 195.57 87.7176 195.69 87.4042 195.93C87.0976 196.163 86.9442 196.467 86.9442 196.84C86.9442 197.12 87.0276 197.347 87.1942 197.52C87.3676 197.687 87.5809 197.817 87.8342 197.91C88.0942 197.997 88.4409 198.093 88.8742 198.2C89.3876 198.327 89.8009 198.453 90.1142 198.58C90.4342 198.7 90.7042 198.887 90.9242 199.14C91.1442 199.387 91.2542 199.723 91.2542 200.15C91.2542 200.503 91.1576 200.827 90.9642 201.12C90.7776 201.407 90.4876 201.637 90.0942 201.81C89.7009 201.977 89.2176 202.06 88.6442 202.06Z" fill="#070D29"/>
<path d="M24.5533 180.502C23.6467 180.502 22.94 180.242 22.4333 179.722C21.9267 179.202 21.6733 178.445 21.6733 177.452V173.442H22.4133V177.422C22.4133 178.235 22.5967 178.842 22.9633 179.242C23.33 179.642 23.86 179.842 24.5533 179.842C25.2533 179.842 25.7867 179.642 26.1533 179.242C26.52 178.842 26.7033 178.235 26.7033 177.422V173.442H27.4233V177.452C27.4233 178.445 27.17 179.202 26.6633 179.722C26.1633 180.242 25.46 180.502 24.5533 180.502ZM33.9456 180.442L31.6856 177.362L29.4356 180.442H28.5856L31.2456 176.842L28.7556 173.442H29.6056L31.7156 176.302L33.8156 173.442H34.6156L32.1356 176.822L34.8056 180.442H33.9456Z" fill="#070D29"/>
<path d="M257.958 127L255.598 134H254.818L252.768 128.03L250.708 134H249.938L247.578 127H248.338L250.358 133.02L252.448 127H253.138L255.198 133.05L257.248 127H257.958ZM261.991 128.7C262.651 128.7 263.174 128.893 263.561 129.28C263.954 129.66 264.151 130.217 264.151 130.95V134H263.441V131.02C263.441 130.473 263.304 130.057 263.031 129.77C262.758 129.483 262.368 129.34 261.861 129.34C261.294 129.34 260.844 129.51 260.511 129.85C260.184 130.183 260.021 130.647 260.021 131.24V134H259.311V126.58H260.021V129.66C260.214 129.353 260.481 129.117 260.821 128.95C261.161 128.783 261.551 128.7 261.991 128.7ZM267.919 128.7C268.605 128.7 269.132 128.873 269.499 129.22C269.865 129.56 270.049 130.067 270.049 130.74V134H269.369V133.18C269.209 133.453 268.972 133.667 268.659 133.82C268.352 133.973 267.985 134.05 267.559 134.05C266.972 134.05 266.505 133.91 266.159 133.63C265.812 133.35 265.639 132.98 265.639 132.52C265.639 132.073 265.799 131.713 266.119 131.44C266.445 131.167 266.962 131.03 267.669 131.03H269.339V130.71C269.339 130.257 269.212 129.913 268.959 129.68C268.705 129.44 268.335 129.32 267.849 129.32C267.515 129.32 267.195 129.377 266.889 129.49C266.582 129.597 266.319 129.747 266.099 129.94L265.779 129.41C266.045 129.183 266.365 129.01 266.739 128.89C267.112 128.763 267.505 128.7 267.919 128.7ZM267.669 133.49C268.069 133.49 268.412 133.4 268.699 133.22C268.985 133.033 269.199 132.767 269.339 132.42V131.56H267.689C266.789 131.56 266.339 131.873 266.339 132.5C266.339 132.807 266.455 133.05 266.689 133.23C266.922 133.403 267.249 133.49 267.669 133.49ZM274.747 133.68C274.614 133.8 274.447 133.893 274.247 133.96C274.054 134.02 273.85 134.05 273.637 134.05C273.144 134.05 272.764 133.917 272.497 133.65C272.23 133.383 272.097 133.007 272.097 132.52V129.34H271.157V128.74H272.097V127.59H272.807V128.74H274.407V129.34H272.807V132.48C272.807 132.793 272.884 133.033 273.037 133.2C273.197 133.36 273.424 133.44 273.717 133.44C273.864 133.44 274.004 133.417 274.137 133.37C274.277 133.323 274.397 133.257 274.497 133.17L274.747 133.68ZM278.657 128.74H279.367V134H278.657V128.74ZM279.017 127.59C278.87 127.59 278.747 127.54 278.647 127.44C278.547 127.34 278.497 127.22 278.497 127.08C278.497 126.947 278.547 126.83 278.647 126.73C278.747 126.63 278.87 126.58 279.017 126.58C279.163 126.58 279.287 126.63 279.387 126.73C279.487 126.823 279.537 126.937 279.537 127.07C279.537 127.217 279.487 127.34 279.387 127.44C279.287 127.54 279.163 127.59 279.017 127.59ZM282.752 134.05C282.326 134.05 281.916 133.99 281.522 133.87C281.136 133.743 280.832 133.587 280.612 133.4L280.932 132.84C281.152 133.013 281.429 133.157 281.762 133.27C282.096 133.377 282.442 133.43 282.802 133.43C283.282 133.43 283.636 133.357 283.862 133.21C284.096 133.057 284.212 132.843 284.212 132.57C284.212 132.377 284.149 132.227 284.022 132.12C283.896 132.007 283.736 131.923 283.542 131.87C283.349 131.81 283.092 131.753 282.772 131.7C282.346 131.62 282.002 131.54 281.742 131.46C281.482 131.373 281.259 131.23 281.072 131.03C280.892 130.83 280.802 130.553 280.802 130.2C280.802 129.76 280.986 129.4 281.352 129.12C281.719 128.84 282.229 128.7 282.882 128.7C283.222 128.7 283.562 128.747 283.902 128.84C284.242 128.927 284.522 129.043 284.742 129.19L284.432 129.76C283.999 129.46 283.482 129.31 282.882 129.31C282.429 129.31 282.086 129.39 281.852 129.55C281.626 129.71 281.512 129.92 281.512 130.18C281.512 130.38 281.576 130.54 281.702 130.66C281.836 130.78 281.999 130.87 282.192 130.93C282.386 130.983 282.652 131.04 282.992 131.1C283.412 131.18 283.749 131.26 284.002 131.34C284.256 131.42 284.472 131.557 284.652 131.75C284.832 131.943 284.922 132.21 284.922 132.55C284.922 133.01 284.729 133.377 284.342 133.65C283.962 133.917 283.432 134.05 282.752 134.05ZM256.842 145.68C256.708 145.8 256.542 145.893 256.342 145.96C256.148 146.02 255.945 146.05 255.732 146.05C255.238 146.05 254.858 145.917 254.592 145.65C254.325 145.383 254.192 145.007 254.192 144.52V141.34H253.252V140.74H254.192V139.59H254.902V140.74H256.502V141.34H254.902V144.48C254.902 144.793 254.978 145.033 255.132 145.2C255.292 145.36 255.518 145.44 255.812 145.44C255.958 145.44 256.098 145.417 256.232 145.37C256.372 145.323 256.492 145.257 256.592 145.17L256.842 145.68ZM260.814 140.7C261.474 140.7 261.998 140.893 262.384 141.28C262.778 141.66 262.974 142.217 262.974 142.95V146H262.264V143.02C262.264 142.473 262.128 142.057 261.854 141.77C261.581 141.483 261.191 141.34 260.684 141.34C260.118 141.34 259.668 141.51 259.334 141.85C259.008 142.183 258.844 142.647 258.844 143.24V146H258.134V138.58H258.844V141.66C259.038 141.353 259.304 141.117 259.644 140.95C259.984 140.783 260.374 140.7 260.814 140.7ZM266.742 140.7C267.428 140.7 267.955 140.873 268.322 141.22C268.688 141.56 268.872 142.067 268.872 142.74V146H268.192V145.18C268.032 145.453 267.795 145.667 267.482 145.82C267.175 145.973 266.808 146.05 266.382 146.05C265.795 146.05 265.328 145.91 264.982 145.63C264.635 145.35 264.462 144.98 264.462 144.52C264.462 144.073 264.622 143.713 264.942 143.44C265.268 143.167 265.785 143.03 266.492 143.03H268.162V142.71C268.162 142.257 268.035 141.913 267.782 141.68C267.528 141.44 267.158 141.32 266.672 141.32C266.338 141.32 266.018 141.377 265.712 141.49C265.405 141.597 265.142 141.747 264.922 141.94L264.602 141.41C264.868 141.183 265.188 141.01 265.562 140.89C265.935 140.763 266.328 140.7 266.742 140.7ZM266.492 145.49C266.892 145.49 267.235 145.4 267.522 145.22C267.808 145.033 268.022 144.767 268.162 144.42V143.56H266.512C265.612 143.56 265.162 143.873 265.162 144.5C265.162 144.807 265.278 145.05 265.512 145.23C265.745 145.403 266.072 145.49 266.492 145.49ZM273.57 145.68C273.437 145.8 273.27 145.893 273.07 145.96C272.877 146.02 272.674 146.05 272.46 146.05C271.967 146.05 271.587 145.917 271.32 145.65C271.054 145.383 270.92 145.007 270.92 144.52V141.34H269.98V140.74H270.92V139.59H271.63V140.74H273.23V141.34H271.63V144.48C271.63 144.793 271.707 145.033 271.86 145.2C272.02 145.36 272.247 145.44 272.54 145.44C272.687 145.44 272.827 145.417 272.96 145.37C273.1 145.323 273.22 145.257 273.32 145.17L273.57 145.68ZM276.047 143.9C276.047 143.627 276.09 143.387 276.177 143.18C276.27 142.973 276.384 142.797 276.517 142.65C276.65 142.503 276.824 142.337 277.037 142.15C277.324 141.897 277.534 141.677 277.667 141.49C277.807 141.297 277.877 141.063 277.877 140.79C277.877 140.423 277.734 140.13 277.447 139.91C277.16 139.683 276.767 139.57 276.267 139.57C275.44 139.57 274.804 139.84 274.357 140.38L273.827 139.98C274.394 139.287 275.224 138.94 276.317 138.94C277.017 138.94 277.574 139.097 277.987 139.41C278.407 139.723 278.617 140.147 278.617 140.68C278.617 140.953 278.57 141.197 278.477 141.41C278.39 141.617 278.28 141.793 278.147 141.94C278.02 142.087 277.85 142.257 277.637 142.45C277.35 142.71 277.137 142.943 276.997 143.15C276.857 143.35 276.787 143.6 276.787 143.9H276.047ZM276.417 146.05C276.27 146.05 276.147 146 276.047 145.9C275.947 145.793 275.897 145.67 275.897 145.53C275.897 145.383 275.947 145.263 276.047 145.17C276.147 145.07 276.27 145.02 276.417 145.02C276.57 145.02 276.697 145.07 276.797 145.17C276.897 145.263 276.947 145.383 276.947 145.53C276.947 145.67 276.894 145.793 276.787 145.9C276.687 146 276.564 146.05 276.417 146.05Z" fill="#070D29"/>
<path d="M248.373 95.39C248.833 95.49 249.186 95.69 249.433 95.99C249.686 96.2833 249.813 96.6633 249.813 97.13C249.813 97.73 249.59 98.1933 249.143 98.52C248.703 98.84 248.05 99 247.183 99H243.963V92H246.983C247.763 92 248.366 92.1567 248.793 92.47C249.226 92.7833 249.443 93.2267 249.443 93.8C249.443 94.1867 249.346 94.5167 249.153 94.79C248.966 95.0567 248.706 95.2567 248.373 95.39ZM244.703 92.61V95.15H246.933C247.5 95.15 247.936 95.0433 248.243 94.83C248.55 94.61 248.703 94.2933 248.703 93.88C248.703 93.4667 248.55 93.1533 248.243 92.94C247.936 92.72 247.5 92.61 246.933 92.61H244.703ZM247.173 98.39C247.8 98.39 248.273 98.2833 248.593 98.07C248.913 97.8567 249.073 97.5233 249.073 97.07C249.073 96.1967 248.44 95.76 247.173 95.76H244.703V98.39H247.173ZM255.932 96.59H251.532C251.572 97.1367 251.782 97.58 252.162 97.92C252.542 98.2533 253.022 98.42 253.602 98.42C253.929 98.42 254.229 98.3633 254.502 98.25C254.775 98.13 255.012 97.9567 255.212 97.73L255.612 98.19C255.379 98.47 255.085 98.6833 254.732 98.83C254.385 98.9767 254.002 99.05 253.582 99.05C253.042 99.05 252.562 98.9367 252.142 98.71C251.729 98.4767 251.405 98.1567 251.172 97.75C250.939 97.3433 250.822 96.8833 250.822 96.37C250.822 95.8567 250.932 95.3967 251.152 94.99C251.379 94.5833 251.685 94.2667 252.072 94.04C252.465 93.8133 252.905 93.7 253.392 93.7C253.879 93.7 254.315 93.8133 254.702 94.04C255.089 94.2667 255.392 94.5833 255.612 94.99C255.832 95.39 255.942 95.85 255.942 96.37L255.932 96.59ZM253.392 94.31C252.885 94.31 252.459 94.4733 252.112 94.8C251.772 95.12 251.579 95.54 251.532 96.06H255.262C255.215 95.54 255.019 95.12 254.672 94.8C254.332 94.4733 253.905 94.31 253.392 94.31ZM262.257 93.74V98.36C262.257 99.2533 262.037 99.9133 261.597 100.34C261.164 100.773 260.507 100.99 259.627 100.99C259.14 100.99 258.677 100.917 258.237 100.77C257.804 100.63 257.45 100.433 257.177 100.18L257.537 99.64C257.79 99.8667 258.097 100.043 258.457 100.17C258.824 100.297 259.207 100.36 259.607 100.36C260.274 100.36 260.764 100.203 261.077 99.89C261.39 99.5833 261.547 99.1033 261.547 98.45V97.78C261.327 98.1133 261.037 98.3667 260.677 98.54C260.324 98.7133 259.93 98.8 259.497 98.8C259.004 98.8 258.554 98.6933 258.147 98.48C257.747 98.26 257.43 97.9567 257.197 97.57C256.97 97.1767 256.857 96.7333 256.857 96.24C256.857 95.7467 256.97 95.3067 257.197 94.92C257.43 94.5333 257.747 94.2333 258.147 94.02C258.547 93.8067 258.997 93.7 259.497 93.7C259.944 93.7 260.347 93.79 260.707 93.97C261.067 94.15 261.357 94.41 261.577 94.75V93.74H262.257ZM259.567 98.17C259.947 98.17 260.29 98.09 260.597 97.93C260.904 97.7633 261.14 97.5333 261.307 97.24C261.48 96.9467 261.567 96.6133 261.567 96.24C261.567 95.8667 261.48 95.5367 261.307 95.25C261.14 94.9567 260.904 94.73 260.597 94.57C260.297 94.4033 259.954 94.32 259.567 94.32C259.187 94.32 258.844 94.4 258.537 94.56C258.237 94.72 258 94.9467 257.827 95.24C257.66 95.5333 257.577 95.8667 257.577 96.24C257.577 96.6133 257.66 96.9467 257.827 97.24C258 97.5333 258.237 97.7633 258.537 97.93C258.844 98.09 259.187 98.17 259.567 98.17ZM269.113 93.74V98.36C269.113 99.2533 268.893 99.9133 268.453 100.34C268.019 100.773 267.363 100.99 266.483 100.99C265.996 100.99 265.533 100.917 265.093 100.77C264.659 100.63 264.306 100.433 264.033 100.18L264.393 99.64C264.646 99.8667 264.953 100.043 265.313 100.17C265.679 100.297 266.063 100.36 266.463 100.36C267.129 100.36 267.619 100.203 267.933 99.89C268.246 99.5833 268.403 99.1033 268.403 98.45V97.78C268.183 98.1133 267.893 98.3667 267.533 98.54C267.179 98.7133 266.786 98.8 266.353 98.8C265.859 98.8 265.409 98.6933 265.003 98.48C264.603 98.26 264.286 97.9567 264.053 97.57C263.826 97.1767 263.713 96.7333 263.713 96.24C263.713 95.7467 263.826 95.3067 264.053 94.92C264.286 94.5333 264.603 94.2333 265.003 94.02C265.403 93.8067 265.853 93.7 266.353 93.7C266.799 93.7 267.203 93.79 267.563 93.97C267.923 94.15 268.213 94.41 268.433 94.75V93.74H269.113ZM266.423 98.17C266.803 98.17 267.146 98.09 267.453 97.93C267.759 97.7633 267.996 97.5333 268.163 97.24C268.336 96.9467 268.423 96.6133 268.423 96.24C268.423 95.8667 268.336 95.5367 268.163 95.25C267.996 94.9567 267.759 94.73 267.453 94.57C267.153 94.4033 266.809 94.32 266.423 94.32C266.043 94.32 265.699 94.4 265.393 94.56C265.093 94.72 264.856 94.9467 264.683 95.24C264.516 95.5333 264.433 95.8667 264.433 96.24C264.433 96.6133 264.516 96.9467 264.683 97.24C264.856 97.5333 265.093 97.7633 265.393 97.93C265.699 98.09 266.043 98.17 266.423 98.17ZM271.098 93.74H271.808V99H271.098V93.74ZM271.458 92.59C271.311 92.59 271.188 92.54 271.088 92.44C270.988 92.34 270.938 92.22 270.938 92.08C270.938 91.9467 270.988 91.83 271.088 91.73C271.188 91.63 271.311 91.58 271.458 91.58C271.605 91.58 271.728 91.63 271.828 91.73C271.928 91.8233 271.978 91.9367 271.978 92.07C271.978 92.2167 271.928 92.34 271.828 92.44C271.728 92.54 271.605 92.59 271.458 92.59ZM276.464 93.7C277.124 93.7 277.647 93.8933 278.034 94.28C278.427 94.66 278.624 95.2167 278.624 95.95V99H277.914V96.02C277.914 95.4733 277.777 95.0567 277.504 94.77C277.23 94.4833 276.84 94.34 276.334 94.34C275.767 94.34 275.317 94.51 274.984 94.85C274.657 95.1833 274.494 95.6467 274.494 96.24V99H273.784V93.74H274.464V94.71C274.657 94.39 274.924 94.1433 275.264 93.97C275.61 93.79 276.01 93.7 276.464 93.7ZM285.151 96.59H280.751C280.791 97.1367 281.001 97.58 281.381 97.92C281.761 98.2533 282.241 98.42 282.821 98.42C283.147 98.42 283.447 98.3633 283.721 98.25C283.994 98.13 284.231 97.9567 284.431 97.73L284.831 98.19C284.597 98.47 284.304 98.6833 283.951 98.83C283.604 98.9767 283.221 99.05 282.801 99.05C282.261 99.05 281.781 98.9367 281.361 98.71C280.947 98.4767 280.624 98.1567 280.391 97.75C280.157 97.3433 280.041 96.8833 280.041 96.37C280.041 95.8567 280.151 95.3967 280.371 94.99C280.597 94.5833 280.904 94.2667 281.291 94.04C281.684 93.8133 282.124 93.7 282.611 93.7C283.097 93.7 283.534 93.8133 283.921 94.04C284.307 94.2667 284.611 94.5833 284.831 94.99C285.051 95.39 285.161 95.85 285.161 96.37L285.151 96.59ZM282.611 94.31C282.104 94.31 281.677 94.4733 281.331 94.8C280.991 95.12 280.797 95.54 280.751 96.06H284.481C284.434 95.54 284.237 95.12 283.891 94.8C283.551 94.4733 283.124 94.31 282.611 94.31ZM287.286 94.77C287.453 94.4167 287.699 94.15 288.026 93.97C288.359 93.79 288.769 93.7 289.256 93.7V94.39L289.086 94.38C288.533 94.38 288.099 94.55 287.786 94.89C287.473 95.23 287.316 95.7067 287.316 96.32V99H286.606V93.74H287.286V94.77Z" fill="#070D29"/>
<path d="M250.556 70.13H246.656L245.816 72H245.046L248.246 65H248.976L252.176 72H251.396L250.556 70.13ZM250.286 69.53L248.606 65.77L246.926 69.53H250.286ZM257.341 66.74L255.001 72H254.271L251.941 66.74H252.681L254.651 71.22L256.641 66.74H257.341ZM262.774 69.59H258.374C258.414 70.1367 258.624 70.58 259.004 70.92C259.384 71.2533 259.864 71.42 260.444 71.42C260.771 71.42 261.071 71.3633 261.344 71.25C261.617 71.13 261.854 70.9567 262.054 70.73L262.454 71.19C262.221 71.47 261.927 71.6833 261.574 71.83C261.227 71.9767 260.844 72.05 260.424 72.05C259.884 72.05 259.404 71.9367 258.984 71.71C258.571 71.4767 258.247 71.1567 258.014 70.75C257.781 70.3433 257.664 69.8833 257.664 69.37C257.664 68.8567 257.774 68.3967 257.994 67.99C258.221 67.5833 258.527 67.2667 258.914 67.04C259.307 66.8133 259.747 66.7 260.234 66.7C260.721 66.7 261.157 66.8133 261.544 67.04C261.931 67.2667 262.234 67.5833 262.454 67.99C262.674 68.39 262.784 68.85 262.784 69.37L262.774 69.59ZM260.234 67.31C259.727 67.31 259.301 67.4733 258.954 67.8C258.614 68.12 258.421 68.54 258.374 69.06H262.104C262.057 68.54 261.861 68.12 261.514 67.8C261.174 67.4733 260.747 67.31 260.234 67.31ZM264.909 67.77C265.076 67.4167 265.323 67.15 265.649 66.97C265.983 66.79 266.393 66.7 266.879 66.7V67.39L266.709 67.38C266.156 67.38 265.723 67.55 265.409 67.89C265.096 68.23 264.939 68.7067 264.939 69.32V72H264.229V66.74H264.909V67.77ZM269.995 66.7C270.682 66.7 271.208 66.8733 271.575 67.22C271.942 67.56 272.125 68.0667 272.125 68.74V72H271.445V71.18C271.285 71.4533 271.048 71.6667 270.735 71.82C270.428 71.9733 270.062 72.05 269.635 72.05C269.048 72.05 268.582 71.91 268.235 71.63C267.888 71.35 267.715 70.98 267.715 70.52C267.715 70.0733 267.875 69.7133 268.195 69.44C268.522 69.1667 269.038 69.03 269.745 69.03H271.415V68.71C271.415 68.2567 271.288 67.9133 271.035 67.68C270.782 67.44 270.412 67.32 269.925 67.32C269.592 67.32 269.272 67.3767 268.965 67.49C268.658 67.5967 268.395 67.7467 268.175 67.94L267.855 67.41C268.122 67.1833 268.442 67.01 268.815 66.89C269.188 66.7633 269.582 66.7 269.995 66.7ZM269.745 71.49C270.145 71.49 270.488 71.4 270.775 71.22C271.062 71.0333 271.275 70.7667 271.415 70.42V69.56H269.765C268.865 69.56 268.415 69.8733 268.415 70.5C268.415 70.8067 268.532 71.05 268.765 71.23C268.998 71.4033 269.325 71.49 269.745 71.49ZM278.943 66.74V71.36C278.943 72.2533 278.723 72.9133 278.283 73.34C277.85 73.7733 277.193 73.99 276.313 73.99C275.826 73.99 275.363 73.9167 274.923 73.77C274.49 73.63 274.136 73.4333 273.863 73.18L274.223 72.64C274.476 72.8667 274.783 73.0433 275.143 73.17C275.51 73.2967 275.893 73.36 276.293 73.36C276.96 73.36 277.45 73.2033 277.763 72.89C278.076 72.5833 278.233 72.1033 278.233 71.45V70.78C278.013 71.1133 277.723 71.3667 277.363 71.54C277.01 71.7133 276.616 71.8 276.183 71.8C275.69 71.8 275.24 71.6933 274.833 71.48C274.433 71.26 274.116 70.9567 273.883 70.57C273.656 70.1767 273.543 69.7333 273.543 69.24C273.543 68.7467 273.656 68.3067 273.883 67.92C274.116 67.5333 274.433 67.2333 274.833 67.02C275.233 66.8067 275.683 66.7 276.183 66.7C276.63 66.7 277.033 66.79 277.393 66.97C277.753 67.15 278.043 67.41 278.263 67.75V66.74H278.943ZM276.253 71.17C276.633 71.17 276.976 71.09 277.283 70.93C277.59 70.7633 277.826 70.5333 277.993 70.24C278.166 69.9467 278.253 69.6133 278.253 69.24C278.253 68.8667 278.166 68.5367 277.993 68.25C277.826 67.9567 277.59 67.73 277.283 67.57C276.983 67.4033 276.64 67.32 276.253 67.32C275.873 67.32 275.53 67.4 275.223 67.56C274.923 67.72 274.686 67.9467 274.513 68.24C274.346 68.5333 274.263 68.8667 274.263 69.24C274.263 69.6133 274.346 69.9467 274.513 70.24C274.686 70.5333 274.923 70.7633 275.223 70.93C275.53 71.09 275.873 71.17 276.253 71.17ZM285.508 69.59H281.108C281.148 70.1367 281.358 70.58 281.738 70.92C282.118 71.2533 282.598 71.42 283.178 71.42C283.505 71.42 283.805 71.3633 284.078 71.25C284.352 71.13 284.588 70.9567 284.788 70.73L285.188 71.19C284.955 71.47 284.662 71.6833 284.308 71.83C283.962 71.9767 283.578 72.05 283.158 72.05C282.618 72.05 282.138 71.9367 281.718 71.71C281.305 71.4767 280.982 71.1567 280.748 70.75C280.515 70.3433 280.398 69.8833 280.398 69.37C280.398 68.8567 280.508 68.3967 280.728 67.99C280.955 67.5833 281.262 67.2667 281.648 67.04C282.042 66.8133 282.482 66.7 282.968 66.7C283.455 66.7 283.892 66.8133 284.278 67.04C284.665 67.2667 284.968 67.5833 285.188 67.99C285.408 68.39 285.518 68.85 285.518 69.37L285.508 69.59ZM282.968 67.31C282.462 67.31 282.035 67.4733 281.688 67.8C281.348 68.12 281.155 68.54 281.108 69.06H284.838C284.792 68.54 284.595 68.12 284.248 67.8C283.908 67.4733 283.482 67.31 282.968 67.31Z" fill="#070D29"/>
<path d="M251.236 39.13H247.336L246.496 41H245.726L248.926 34H249.656L252.856 41H252.076L251.236 39.13ZM250.966 38.53L249.286 34.77L247.606 38.53H250.966ZM258.615 33.58V41H257.935V39.96C257.722 40.3133 257.439 40.5833 257.085 40.77C256.739 40.9567 256.345 41.05 255.905 41.05C255.412 41.05 254.965 40.9367 254.565 40.71C254.165 40.4833 253.852 40.1667 253.625 39.76C253.399 39.3533 253.285 38.89 253.285 38.37C253.285 37.85 253.399 37.3867 253.625 36.98C253.852 36.5733 254.165 36.26 254.565 36.04C254.965 35.8133 255.412 35.7 255.905 35.7C256.332 35.7 256.715 35.79 257.055 35.97C257.402 36.1433 257.685 36.4 257.905 36.74V33.58H258.615ZM255.965 40.42C256.332 40.42 256.662 40.3367 256.955 40.17C257.255 39.9967 257.489 39.7533 257.655 39.44C257.829 39.1267 257.915 38.77 257.915 38.37C257.915 37.97 257.829 37.6133 257.655 37.3C257.489 36.9867 257.255 36.7467 256.955 36.58C256.662 36.4067 256.332 36.32 255.965 36.32C255.592 36.32 255.255 36.4067 254.955 36.58C254.662 36.7467 254.429 36.9867 254.255 37.3C254.089 37.6133 254.005 37.97 254.005 38.37C254.005 38.77 254.089 39.1267 254.255 39.44C254.429 39.7533 254.662 39.9967 254.955 40.17C255.255 40.3367 255.592 40.42 255.965 40.42ZM265.013 35.74L262.673 41H261.943L259.613 35.74H260.353L262.323 40.22L264.313 35.74H265.013ZM267.696 35.7C268.383 35.7 268.91 35.8733 269.276 36.22C269.643 36.56 269.826 37.0667 269.826 37.74V41H269.146V40.18C268.986 40.4533 268.75 40.6667 268.436 40.82C268.13 40.9733 267.763 41.05 267.336 41.05C266.75 41.05 266.283 40.91 265.936 40.63C265.59 40.35 265.416 39.98 265.416 39.52C265.416 39.0733 265.576 38.7133 265.896 38.44C266.223 38.1667 266.74 38.03 267.446 38.03H269.116V37.71C269.116 37.2567 268.99 36.9133 268.736 36.68C268.483 36.44 268.113 36.32 267.626 36.32C267.293 36.32 266.973 36.3767 266.666 36.49C266.36 36.5967 266.096 36.7467 265.876 36.94L265.556 36.41C265.823 36.1833 266.143 36.01 266.516 35.89C266.89 35.7633 267.283 35.7 267.696 35.7ZM267.446 40.49C267.846 40.49 268.19 40.4 268.476 40.22C268.763 40.0333 268.976 39.7667 269.116 39.42V38.56H267.466C266.566 38.56 266.116 38.8733 266.116 39.5C266.116 39.8067 266.233 40.05 266.466 40.23C266.7 40.4033 267.026 40.49 267.446 40.49ZM274.435 35.7C275.095 35.7 275.618 35.8933 276.005 36.28C276.398 36.66 276.595 37.2167 276.595 37.95V41H275.885V38.02C275.885 37.4733 275.748 37.0567 275.475 36.77C275.201 36.4833 274.811 36.34 274.305 36.34C273.738 36.34 273.288 36.51 272.955 36.85C272.628 37.1833 272.465 37.6467 272.465 38.24V41H271.755V35.74H272.435V36.71C272.628 36.39 272.895 36.1433 273.235 35.97C273.581 35.79 273.981 35.7 274.435 35.7ZM280.722 41.05C280.202 41.05 279.735 40.9367 279.322 40.71C278.915 40.4833 278.595 40.1667 278.362 39.76C278.128 39.3467 278.012 38.8833 278.012 38.37C278.012 37.8567 278.128 37.3967 278.362 36.99C278.595 36.5833 278.915 36.2667 279.322 36.04C279.735 35.8133 280.202 35.7 280.722 35.7C281.175 35.7 281.578 35.79 281.932 35.97C282.292 36.1433 282.575 36.4 282.782 36.74L282.252 37.1C282.078 36.84 281.858 36.6467 281.592 36.52C281.325 36.3867 281.035 36.32 280.722 36.32C280.342 36.32 279.998 36.4067 279.692 36.58C279.392 36.7467 279.155 36.9867 278.982 37.3C278.815 37.6133 278.732 37.97 278.732 38.37C278.732 38.7767 278.815 39.1367 278.982 39.45C279.155 39.7567 279.392 39.9967 279.692 40.17C279.998 40.3367 280.342 40.42 280.722 40.42C281.035 40.42 281.325 40.3567 281.592 40.23C281.858 40.1033 282.078 39.91 282.252 39.65L282.782 40.01C282.575 40.35 282.292 40.61 281.932 40.79C281.572 40.9633 281.168 41.05 280.722 41.05ZM288.669 38.59H284.269C284.309 39.1367 284.519 39.58 284.899 39.92C285.279 40.2533 285.759 40.42 286.339 40.42C286.665 40.42 286.965 40.3633 287.239 40.25C287.512 40.13 287.749 39.9567 287.949 39.73L288.349 40.19C288.115 40.47 287.822 40.6833 287.469 40.83C287.122 40.9767 286.739 41.05 286.319 41.05C285.779 41.05 285.299 40.9367 284.879 40.71C284.465 40.4767 284.142 40.1567 283.909 39.75C283.675 39.3433 283.559 38.8833 283.559 38.37C283.559 37.8567 283.669 37.3967 283.889 36.99C284.115 36.5833 284.422 36.2667 284.809 36.04C285.202 35.8133 285.642 35.7 286.129 35.7C286.615 35.7 287.052 35.8133 287.439 36.04C287.825 36.2667 288.129 36.5833 288.349 36.99C288.569 37.39 288.679 37.85 288.679 38.37L288.669 38.59ZM286.129 36.31C285.622 36.31 285.195 36.4733 284.849 36.8C284.509 37.12 284.315 37.54 284.269 38.06H287.999C287.952 37.54 287.755 37.12 287.409 36.8C287.069 36.4733 286.642 36.31 286.129 36.31ZM294.924 33.58V41H294.244V39.96C294.03 40.3133 293.747 40.5833 293.394 40.77C293.047 40.9567 292.654 41.05 292.214 41.05C291.72 41.05 291.274 40.9367 290.874 40.71C290.474 40.4833 290.16 40.1667 289.934 39.76C289.707 39.3533 289.594 38.89 289.594 38.37C289.594 37.85 289.707 37.3867 289.934 36.98C290.16 36.5733 290.474 36.26 290.874 36.04C291.274 35.8133 291.72 35.7 292.214 35.7C292.64 35.7 293.024 35.79 293.364 35.97C293.71 36.1433 293.994 36.4 294.214 36.74V33.58H294.924ZM292.274 40.42C292.64 40.42 292.97 40.3367 293.264 40.17C293.564 39.9967 293.797 39.7533 293.964 39.44C294.137 39.1267 294.224 38.77 294.224 38.37C294.224 37.97 294.137 37.6133 293.964 37.3C293.797 36.9867 293.564 36.7467 293.264 36.58C292.97 36.4067 292.64 36.32 292.274 36.32C291.9 36.32 291.564 36.4067 291.264 36.58C290.97 36.7467 290.737 36.9867 290.564 37.3C290.397 37.6133 290.314 37.97 290.314 38.37C290.314 38.77 290.397 39.1267 290.564 39.44C290.737 39.7533 290.97 39.9967 291.264 40.17C291.564 40.3367 291.9 40.42 292.274 40.42Z" fill="#070D29"/>
<path d="M248.245 10L246.645 7.75C246.465 7.77 246.278 7.78 246.085 7.78H244.205V10H243.465V3H246.085C246.978 3 247.678 3.21333 248.185 3.64C248.692 4.06667 248.945 4.65333 248.945 5.4C248.945 5.94667 248.805 6.41 248.525 6.79C248.252 7.16333 247.858 7.43333 247.345 7.6L249.055 10H248.245ZM246.065 7.15C246.758 7.15 247.288 6.99667 247.655 6.69C248.022 6.38333 248.205 5.95333 248.205 5.4C248.205 4.83333 248.022 4.4 247.655 4.1C247.288 3.79333 246.758 3.64 246.065 3.64H244.205V7.15H246.065ZM252.691 10.05C252.185 10.05 251.728 9.93667 251.321 9.71C250.915 9.47667 250.595 9.15667 250.361 8.75C250.128 8.34333 250.011 7.88333 250.011 7.37C250.011 6.85667 250.128 6.39667 250.361 5.99C250.595 5.58333 250.915 5.26667 251.321 5.04C251.728 4.81333 252.185 4.7 252.691 4.7C253.198 4.7 253.655 4.81333 254.061 5.04C254.468 5.26667 254.785 5.58333 255.011 5.99C255.245 6.39667 255.361 6.85667 255.361 7.37C255.361 7.88333 255.245 8.34333 255.011 8.75C254.785 9.15667 254.468 9.47667 254.061 9.71C253.655 9.93667 253.198 10.05 252.691 10.05ZM252.691 9.42C253.065 9.42 253.398 9.33667 253.691 9.17C253.991 8.99667 254.225 8.75333 254.391 8.44C254.558 8.12667 254.641 7.77 254.641 7.37C254.641 6.97 254.558 6.61333 254.391 6.3C254.225 5.98667 253.991 5.74667 253.691 5.58C253.398 5.40667 253.065 5.32 252.691 5.32C252.318 5.32 251.981 5.40667 251.681 5.58C251.388 5.74667 251.155 5.98667 250.981 6.3C250.815 6.61333 250.731 6.97 250.731 7.37C250.731 7.77 250.815 8.12667 250.981 8.44C251.155 8.75333 251.388 8.99667 251.681 9.17C251.981 9.33667 252.318 9.42 252.691 9.42ZM258.991 10.05C258.471 10.05 258.004 9.93667 257.591 9.71C257.184 9.48333 256.864 9.16667 256.631 8.76C256.398 8.34667 256.281 7.88333 256.281 7.37C256.281 6.85667 256.398 6.39667 256.631 5.99C256.864 5.58333 257.184 5.26667 257.591 5.04C258.004 4.81333 258.471 4.7 258.991 4.7C259.444 4.7 259.848 4.79 260.201 4.97C260.561 5.14333 260.844 5.4 261.051 5.74L260.521 6.1C260.348 5.84 260.128 5.64667 259.861 5.52C259.594 5.38667 259.304 5.32 258.991 5.32C258.611 5.32 258.268 5.40667 257.961 5.58C257.661 5.74667 257.424 5.98667 257.251 6.3C257.084 6.61333 257.001 6.97 257.001 7.37C257.001 7.77667 257.084 8.13667 257.251 8.45C257.424 8.75667 257.661 8.99667 257.961 9.17C258.268 9.33667 258.611 9.42 258.991 9.42C259.304 9.42 259.594 9.35667 259.861 9.23C260.128 9.10333 260.348 8.91 260.521 8.65L261.051 9.01C260.844 9.35 260.561 9.61 260.201 9.79C259.841 9.96333 259.438 10.05 258.991 10.05ZM264.318 7.36L263.078 8.5V10H262.368V2.58H263.078V7.61L266.218 4.74H267.098L264.848 6.89L267.308 10H266.438L264.318 7.36ZM273.071 10.06C272.551 10.06 272.051 9.97667 271.571 9.81C271.097 9.64333 270.731 9.42333 270.471 9.15L270.761 8.58C271.014 8.83333 271.351 9.04 271.771 9.2C272.191 9.35333 272.624 9.43 273.071 9.43C273.697 9.43 274.167 9.31667 274.481 9.09C274.794 8.85667 274.951 8.55667 274.951 8.19C274.951 7.91 274.864 7.68667 274.691 7.52C274.524 7.35333 274.317 7.22667 274.071 7.14C273.824 7.04667 273.481 6.94667 273.041 6.84C272.514 6.70667 272.094 6.58 271.781 6.46C271.467 6.33333 271.197 6.14333 270.971 5.89C270.751 5.63667 270.641 5.29333 270.641 4.86C270.641 4.50667 270.734 4.18667 270.921 3.9C271.107 3.60667 271.394 3.37333 271.781 3.2C272.167 3.02667 272.647 2.94 273.221 2.94C273.621 2.94 274.011 2.99667 274.391 3.11C274.777 3.21667 275.111 3.36667 275.391 3.56L275.141 4.15C274.847 3.95667 274.534 3.81333 274.201 3.72C273.867 3.62 273.541 3.57 273.221 3.57C272.607 3.57 272.144 3.69 271.831 3.93C271.524 4.16333 271.371 4.46667 271.371 4.84C271.371 5.12 271.454 5.34667 271.621 5.52C271.794 5.68667 272.007 5.81667 272.261 5.91C272.521 5.99667 272.867 6.09333 273.301 6.2C273.814 6.32667 274.227 6.45333 274.541 6.58C274.861 6.7 275.131 6.88667 275.351 7.14C275.571 7.38667 275.681 7.72333 275.681 8.15C275.681 8.50333 275.584 8.82667 275.391 9.12C275.204 9.40667 274.914 9.63667 274.521 9.81C274.127 9.97667 273.644 10.06 273.071 10.06ZM279.913 9.68C279.78 9.8 279.613 9.89333 279.413 9.96C279.22 10.02 279.016 10.05 278.803 10.05C278.31 10.05 277.93 9.91667 277.663 9.65C277.396 9.38333 277.263 9.00667 277.263 8.52V5.34H276.323V4.74H277.263V3.59H277.973V4.74H279.573V5.34H277.973V8.48C277.973 8.79333 278.05 9.03333 278.203 9.2C278.363 9.36 278.59 9.44 278.883 9.44C279.03 9.44 279.17 9.41667 279.303 9.37C279.443 9.32333 279.563 9.25667 279.663 9.17L279.913 9.68ZM283.045 4.7C283.732 4.7 284.259 4.87333 284.625 5.22C284.992 5.56 285.175 6.06667 285.175 6.74V10H284.495V9.18C284.335 9.45333 284.099 9.66667 283.785 9.82C283.479 9.97333 283.112 10.05 282.685 10.05C282.099 10.05 281.632 9.91 281.285 9.63C280.939 9.35 280.765 8.98 280.765 8.52C280.765 8.07333 280.925 7.71333 281.245 7.44C281.572 7.16667 282.089 7.03 282.795 7.03H284.465V6.71C284.465 6.25667 284.339 5.91333 284.085 5.68C283.832 5.44 283.462 5.32 282.975 5.32C282.642 5.32 282.322 5.37667 282.015 5.49C281.709 5.59667 281.445 5.74667 281.225 5.94L280.905 5.41C281.172 5.18333 281.492 5.01 281.865 4.89C282.239 4.76333 282.632 4.7 283.045 4.7ZM282.795 9.49C283.195 9.49 283.539 9.4 283.825 9.22C284.112 9.03333 284.325 8.76667 284.465 8.42V7.56H282.815C281.915 7.56 281.465 7.87333 281.465 8.5C281.465 8.80667 281.582 9.05 281.815 9.23C282.049 9.40333 282.375 9.49 282.795 9.49ZM287.784 5.77C287.951 5.41667 288.197 5.15 288.524 4.97C288.857 4.79 289.267 4.7 289.754 4.7V5.39L289.584 5.38C289.031 5.38 288.597 5.55 288.284 5.89C287.971 6.23 287.814 6.70667 287.814 7.32V10H287.104V4.74H287.784V5.77Z" fill="#070D29"/>
<path d="M217.904 177.852C217.504 177.852 217.134 177.766 216.794 177.592C216.454 177.419 216.178 177.172 215.964 176.852L216.404 176.352C216.791 176.926 217.294 177.212 217.914 177.212C218.781 177.212 219.214 176.699 219.214 175.672V171.432H216.654V170.792H219.944V175.642C219.944 176.376 219.771 176.929 219.424 177.302C219.084 177.669 218.578 177.852 217.904 177.852ZM224.094 177.852C223.574 177.852 223.074 177.769 222.594 177.602C222.121 177.436 221.754 177.216 221.494 176.942L221.784 176.372C222.037 176.626 222.374 176.832 222.794 176.992C223.214 177.146 223.647 177.222 224.094 177.222C224.721 177.222 225.191 177.109 225.504 176.882C225.817 176.649 225.974 176.349 225.974 175.982C225.974 175.702 225.887 175.479 225.714 175.312C225.547 175.146 225.341 175.019 225.094 174.932C224.847 174.839 224.504 174.739 224.064 174.632C223.537 174.499 223.117 174.372 222.804 174.252C222.491 174.126 222.221 173.936 221.994 173.682C221.774 173.429 221.664 173.086 221.664 172.652C221.664 172.299 221.757 171.979 221.944 171.692C222.131 171.399 222.417 171.166 222.804 170.992C223.191 170.819 223.671 170.732 224.244 170.732C224.644 170.732 225.034 170.789 225.414 170.902C225.801 171.009 226.134 171.159 226.414 171.352L226.164 171.942C225.871 171.749 225.557 171.606 225.224 171.512C224.891 171.412 224.564 171.362 224.244 171.362C223.631 171.362 223.167 171.482 222.854 171.722C222.547 171.956 222.394 172.259 222.394 172.632C222.394 172.912 222.477 173.139 222.644 173.312C222.817 173.479 223.031 173.609 223.284 173.702C223.544 173.789 223.891 173.886 224.324 173.992C224.837 174.119 225.251 174.246 225.564 174.372C225.884 174.492 226.154 174.679 226.374 174.932C226.594 175.179 226.704 175.516 226.704 175.942C226.704 176.296 226.607 176.619 226.414 176.912C226.227 177.199 225.937 177.429 225.544 177.602C225.151 177.769 224.667 177.852 224.094 177.852Z" fill="#070D29"/>
<path d="M121.525 180L119.925 177.75C119.745 177.77 119.559 177.78 119.365 177.78H117.485V180H116.745V173H119.365C120.259 173 120.959 173.213 121.465 173.64C121.972 174.067 122.225 174.653 122.225 175.4C122.225 175.947 122.085 176.41 121.805 176.79C121.532 177.163 121.139 177.433 120.625 177.6L122.335 180H121.525ZM119.345 177.15C120.039 177.15 120.569 176.997 120.935 176.69C121.302 176.383 121.485 175.953 121.485 175.4C121.485 174.833 121.302 174.4 120.935 174.1C120.569 173.793 120.039 173.64 119.345 173.64H117.485V177.15H119.345ZM128.402 177.59H124.002C124.042 178.137 124.252 178.58 124.632 178.92C125.012 179.253 125.492 179.42 126.072 179.42C126.399 179.42 126.699 179.363 126.972 179.25C127.245 179.13 127.482 178.957 127.682 178.73L128.082 179.19C127.849 179.47 127.555 179.683 127.202 179.83C126.855 179.977 126.472 180.05 126.052 180.05C125.512 180.05 125.032 179.937 124.612 179.71C124.199 179.477 123.875 179.157 123.642 178.75C123.409 178.343 123.292 177.883 123.292 177.37C123.292 176.857 123.402 176.397 123.622 175.99C123.849 175.583 124.155 175.267 124.542 175.04C124.935 174.813 125.375 174.7 125.862 174.7C126.349 174.7 126.785 174.813 127.172 175.04C127.559 175.267 127.862 175.583 128.082 175.99C128.302 176.39 128.412 176.85 128.412 177.37L128.402 177.59ZM125.862 175.31C125.355 175.31 124.929 175.473 124.582 175.8C124.242 176.12 124.049 176.54 124.002 177.06H127.732C127.685 176.54 127.489 176.12 127.142 175.8C126.802 175.473 126.375 175.31 125.862 175.31ZM131.551 174.7C132.237 174.7 132.764 174.873 133.131 175.22C133.497 175.56 133.681 176.067 133.681 176.74V180H133.001V179.18C132.841 179.453 132.604 179.667 132.291 179.82C131.984 179.973 131.617 180.05 131.191 180.05C130.604 180.05 130.137 179.91 129.791 179.63C129.444 179.35 129.271 178.98 129.271 178.52C129.271 178.073 129.431 177.713 129.751 177.44C130.077 177.167 130.594 177.03 131.301 177.03H132.971V176.71C132.971 176.257 132.844 175.913 132.591 175.68C132.337 175.44 131.967 175.32 131.481 175.32C131.147 175.32 130.827 175.377 130.521 175.49C130.214 175.597 129.951 175.747 129.731 175.94L129.411 175.41C129.677 175.183 129.997 175.01 130.371 174.89C130.744 174.763 131.137 174.7 131.551 174.7ZM131.301 179.49C131.701 179.49 132.044 179.4 132.331 179.22C132.617 179.033 132.831 178.767 132.971 178.42V177.56H131.321C130.421 177.56 129.971 177.873 129.971 178.5C129.971 178.807 130.087 179.05 130.321 179.23C130.554 179.403 130.881 179.49 131.301 179.49ZM137.809 180.05C137.289 180.05 136.822 179.937 136.409 179.71C136.002 179.483 135.682 179.167 135.449 178.76C135.215 178.347 135.099 177.883 135.099 177.37C135.099 176.857 135.215 176.397 135.449 175.99C135.682 175.583 136.002 175.267 136.409 175.04C136.822 174.813 137.289 174.7 137.809 174.7C138.262 174.7 138.665 174.79 139.019 174.97C139.379 175.143 139.662 175.4 139.869 175.74L139.339 176.1C139.165 175.84 138.945 175.647 138.679 175.52C138.412 175.387 138.122 175.32 137.809 175.32C137.429 175.32 137.085 175.407 136.779 175.58C136.479 175.747 136.242 175.987 136.069 176.3C135.902 176.613 135.819 176.97 135.819 177.37C135.819 177.777 135.902 178.137 136.069 178.45C136.242 178.757 136.479 178.997 136.779 179.17C137.085 179.337 137.429 179.42 137.809 179.42C138.122 179.42 138.412 179.357 138.679 179.23C138.945 179.103 139.165 178.91 139.339 178.65L139.869 179.01C139.662 179.35 139.379 179.61 139.019 179.79C138.659 179.963 138.255 180.05 137.809 180.05ZM144.092 179.68C143.959 179.8 143.792 179.893 143.592 179.96C143.399 180.02 143.195 180.05 142.982 180.05C142.489 180.05 142.109 179.917 141.842 179.65C141.575 179.383 141.442 179.007 141.442 178.52V175.34H140.502V174.74H141.442V173.59H142.152V174.74H143.752V175.34H142.152V178.48C142.152 178.793 142.229 179.033 142.382 179.2C142.542 179.36 142.769 179.44 143.062 179.44C143.209 179.44 143.349 179.417 143.482 179.37C143.622 179.323 143.742 179.257 143.842 179.17L144.092 179.68Z" fill="#070D29"/>
<path d="M165.878 180.502C165.184 180.502 164.558 180.348 163.998 180.042C163.444 179.735 163.008 179.312 162.688 178.772C162.374 178.225 162.218 177.615 162.218 176.942C162.218 176.268 162.374 175.662 162.688 175.122C163.008 174.575 163.448 174.148 164.008 173.842C164.568 173.535 165.194 173.382 165.888 173.382C166.408 173.382 166.888 173.468 167.328 173.642C167.768 173.815 168.141 174.068 168.448 174.402L167.978 174.872C167.431 174.318 166.741 174.042 165.908 174.042C165.354 174.042 164.851 174.168 164.398 174.422C163.944 174.675 163.588 175.022 163.328 175.462C163.074 175.902 162.948 176.395 162.948 176.942C162.948 177.488 163.074 177.982 163.328 178.422C163.588 178.862 163.944 179.208 164.398 179.462C164.851 179.715 165.354 179.842 165.908 179.842C166.748 179.842 167.438 179.562 167.978 179.002L168.448 179.472C168.141 179.805 167.764 180.062 167.318 180.242C166.878 180.415 166.398 180.502 165.878 180.502ZM177.295 173.442V180.442H176.585V174.842L173.835 179.552H173.485L170.735 174.872V180.442H170.025V173.442H170.635L173.675 178.632L176.685 173.442H177.295ZM181.506 180.502C180.986 180.502 180.486 180.418 180.006 180.252C179.533 180.085 179.166 179.865 178.906 179.592L179.196 179.022C179.449 179.275 179.786 179.482 180.206 179.642C180.626 179.795 181.059 179.872 181.506 179.872C182.133 179.872 182.603 179.758 182.916 179.532C183.229 179.298 183.386 178.998 183.386 178.632C183.386 178.352 183.299 178.128 183.126 177.962C182.959 177.795 182.753 177.668 182.506 177.582C182.259 177.488 181.916 177.388 181.476 177.282C180.949 177.148 180.529 177.022 180.216 176.902C179.903 176.775 179.633 176.585 179.406 176.332C179.186 176.078 179.076 175.735 179.076 175.302C179.076 174.948 179.169 174.628 179.356 174.342C179.543 174.048 179.829 173.815 180.216 173.642C180.603 173.468 181.083 173.382 181.656 173.382C182.056 173.382 182.446 173.438 182.826 173.552C183.213 173.658 183.546 173.808 183.826 174.002L183.576 174.592C183.283 174.398 182.969 174.255 182.636 174.162C182.303 174.062 181.976 174.012 181.656 174.012C181.043 174.012 180.579 174.132 180.266 174.372C179.959 174.605 179.806 174.908 179.806 175.282C179.806 175.562 179.889 175.788 180.056 175.962C180.229 176.128 180.443 176.258 180.696 176.352C180.956 176.438 181.303 176.535 181.736 176.642C182.249 176.768 182.663 176.895 182.976 177.022C183.296 177.142 183.566 177.328 183.786 177.582C184.006 177.828 184.116 178.165 184.116 178.592C184.116 178.945 184.019 179.268 183.826 179.562C183.639 179.848 183.349 180.078 182.956 180.252C182.563 180.418 182.079 180.502 181.506 180.502Z" fill="#070D29"/>
<path d="M296.586 2.89511L295.833 4.72183L294.149 5.01571C293.847 5.06814 293.726 5.51378 293.945 5.76903L295.164 7.19012L294.875 9.19758C294.823 9.56044 295.143 9.83224 295.41 9.66254L296.917 8.71468L298.423 9.66254C298.691 9.83086 299.01 9.56044 298.958 9.19758L298.67 7.19012L299.888 5.76903C300.107 5.51378 299.986 5.06814 299.684 5.01571L298 4.72183L297.247 2.89511C297.113 2.5695 296.722 2.56536 296.586 2.89511Z" fill="black"/>
<defs>
<filter id="filter0_d" x="1.52588e-05" y="129.818" width="237.929" height="9.00002" filterUnits="userSpaceOnUse" color-interpolation-filters="sRGB">
<feFlood flood-opacity="0" result="BackgroundImageFix"/>
<feColorMatrix in="SourceAlpha" type="matrix" values="0 0 0 0 0 0 0 0 0 0 0 0 0 0 0 0 0 0 127 0"/>
<feOffset dy="4"/>
<feGaussianBlur stdDeviation="2"/>
<feColorMatrix type="matrix" values="0 0 0 0 0 0 0 0 0 0 0 0 0 0 0 0 0 0 0.25 0"/>
<feBlend mode="normal" in2="BackgroundImageFix" result="effect1_dropShadow"/>
<feBlend mode="normal" in="SourceGraphic" in2="effect1_dropShadow" result="shape"/>
</filter>
<filter id="filter1_d" x="1.52588e-05" y="98.9091" width="237.929" height="9.00002" filterUnits="userSpaceOnUse" color-interpolation-filters="sRGB">
<feFlood flood-opacity="0" result="BackgroundImageFix"/>
<feColorMatrix in="SourceAlpha" type="matrix" values="0 0 0 0 0 0 0 0 0 0 0 0 0 0 0 0 0 0 127 0"/>
<feOffset dy="4"/>
<feGaussianBlur stdDeviation="2"/>
<feColorMatrix type="matrix" values="0 0 0 0 0 0 0 0 0 0 0 0 0 0 0 0 0 0 0.25 0"/>
<feBlend mode="normal" in2="BackgroundImageFix" result="effect1_dropShadow"/>
<feBlend mode="normal" in="SourceGraphic" in2="effect1_dropShadow" result="shape"/>
</filter>
<filter id="filter2_d" x="1.52588e-05" y="68" width="237.929" height="9.00002" filterUnits="userSpaceOnUse" color-interpolation-filters="sRGB">
<feFlood flood-opacity="0" result="BackgroundImageFix"/>
<feColorMatrix in="SourceAlpha" type="matrix" values="0 0 0 0 0 0 0 0 0 0 0 0 0 0 0 0 0 0 127 0"/>
<feOffset dy="4"/>
<feGaussianBlur stdDeviation="2"/>
<feColorMatrix type="matrix" values="0 0 0 0 0 0 0 0 0 0 0 0 0 0 0 0 0 0 0.25 0"/>
<feBlend mode="normal" in2="BackgroundImageFix" result="effect1_dropShadow"/>
<feBlend mode="normal" in="SourceGraphic" in2="effect1_dropShadow" result="shape"/>
</filter>
<filter id="filter3_d" x="1.52588e-05" y="37.0909" width="238.81" height="9" filterUnits="userSpaceOnUse" color-interpolation-filters="sRGB">
<feFlood flood-opacity="0" result="BackgroundImageFix"/>
<feColorMatrix in="SourceAlpha" type="matrix" values="0 0 0 0 0 0 0 0 0 0 0 0 0 0 0 0 0 0 127 0"/>
<feOffset dy="4"/>
<feGaussianBlur stdDeviation="2"/>
<feColorMatrix type="matrix" values="0 0 0 0 0 0 0 0 0 0 0 0 0 0 0 0 0 0 0.25 0"/>
<feBlend mode="normal" in2="BackgroundImageFix" result="effect1_dropShadow"/>
<feBlend mode="normal" in="SourceGraphic" in2="effect1_dropShadow" result="shape"/>
</filter>
<filter id="filter4_d" x="1.52588e-05" y="6.18182" width="238.81" height="9" filterUnits="userSpaceOnUse" color-interpolation-filters="sRGB">
<feFlood flood-opacity="0" result="BackgroundImageFix"/>
<feColorMatrix in="SourceAlpha" type="matrix" values="0 0 0 0 0 0 0 0 0 0 0 0 0 0 0 0 0 0 127 0"/>
<feOffset dy="4"/>
<feGaussianBlur stdDeviation="2"/>
<feColorMatrix type="matrix" values="0 0 0 0 0 0 0 0 0 0 0 0 0 0 0 0 0 0 0.25 0"/>
<feBlend mode="normal" in2="BackgroundImageFix" result="effect1_dropShadow"/>
<feBlend mode="normal" in="SourceGraphic" in2="effect1_dropShadow" result="shape"/>
</filter>
<filter id="filter5_d" x="11" y="99" width="34" height="70" filterUnits="userSpaceOnUse" color-interpolation-filters="sRGB">
<feFlood flood-opacity="0" result="BackgroundImageFix"/>
<feColorMatrix in="SourceAlpha" type="matrix" values="0 0 0 0 0 0 0 0 0 0 0 0 0 0 0 0 0 0 127 0"/>
<feOffset dy="4"/>
<feGaussianBlur stdDeviation="2"/>
<feColorMatrix type="matrix" values="0 0 0 0 0 0 0 0 0 0 0 0 0 0 0 0 0 0 0.25 0"/>
<feBlend mode="normal" in2="BackgroundImageFix" result="effect1_dropShadow"/>
<feBlend mode="normal" in="SourceGraphic" in2="effect1_dropShadow" result="shape"/>
</filter>
<filter id="filter6_d" x="59" y="20" width="34" height="149" filterUnits="userSpaceOnUse" color-interpolation-filters="sRGB">
<feFlood flood-opacity="0" result="BackgroundImageFix"/>
<feColorMatrix in="SourceAlpha" type="matrix" values="0 0 0 0 0 0 0 0 0 0 0 0 0 0 0 0 0 0 127 0"/>
<feOffset dy="4"/>
<feGaussianBlur stdDeviation="2"/>
<feColorMatrix type="matrix" values="0 0 0 0 0 0 0 0 0 0 0 0 0 0 0 0 0 0 0.25 0"/>
<feBlend mode="normal" in2="BackgroundImageFix" result="effect1_dropShadow"/>
<feBlend mode="normal" in="SourceGraphic" in2="effect1_dropShadow" result="shape"/>
</filter>
<filter id="filter7_d" x="107" y="62" width="35" height="107" filterUnits="userSpaceOnUse" color-interpolation-filters="sRGB">
<feFlood flood-opacity="0" result="BackgroundImageFix"/>
<feColorMatrix in="SourceAlpha" type="matrix" values="0 0 0 0 0 0 0 0 0 0 0 0 0 0 0 0 0 0 127 0"/>
<feOffset dy="4"/>
<feGaussianBlur stdDeviation="2"/>
<feColorMatrix type="matrix" values="0 0 0 0 0 0 0 0 0 0 0 0 0 0 0 0 0 0 0.25 0"/>
<feBlend mode="normal" in2="BackgroundImageFix" result="effect1_dropShadow"/>
<feBlend mode="normal" in="SourceGraphic" in2="effect1_dropShadow" result="shape"/>
</filter>
<filter id="filter8_d" x="156" y="80" width="34" height="89" filterUnits="userSpaceOnUse" color-interpolation-filters="sRGB">
<feFlood flood-opacity="0" result="BackgroundImageFix"/>
<feColorMatrix in="SourceAlpha" type="matrix" values="0 0 0 0 0 0 0 0 0 0 0 0 0 0 0 0 0 0 127 0"/>
<feOffset dy="4"/>
<feGaussianBlur stdDeviation="2"/>
<feColorMatrix type="matrix" values="0 0 0 0 0 0 0 0 0 0 0 0 0 0 0 0 0 0 0.25 0"/>
<feBlend mode="normal" in2="BackgroundImageFix" result="effect1_dropShadow"/>
<feBlend mode="normal" in="SourceGraphic" in2="effect1_dropShadow" result="shape"/>
</filter>
<filter id="filter9_d" x="204" y="50" width="34" height="119" filterUnits="userSpaceOnUse" color-interpolation-filters="sRGB">
<feFlood flood-opacity="0" result="BackgroundImageFix"/>
<feColorMatrix in="SourceAlpha" type="matrix" values="0 0 0 0 0 0 0 0 0 0 0 0 0 0 0 0 0 0 127 0"/>
<feOffset dy="4"/>
<feGaussianBlur stdDeviation="2"/>
<feColorMatrix type="matrix" values="0 0 0 0 0 0 0 0 0 0 0 0 0 0 0 0 0 0 0.25 0"/>
<feBlend mode="normal" in2="BackgroundImageFix" result="effect1_dropShadow"/>
<feBlend mode="normal" in="SourceGraphic" in2="effect1_dropShadow" result="shape"/>
</filter>
</defs>
</svg>
